<mxfile host="app.diagrams.net" modified="2023-11-10T14:42:21.150Z" agent="Mozilla/5.0 (Windows NT 10.0; Win64; x64) AppleWebKit/537.36 (KHTML, like Gecko) Chrome/117.0.0.0 Safari/537.36" etag="NOIC6Ul71m5ofIuPAmjm" version="22.1.0" type="github">
  <diagram name="Seite-1" id="EMdmt3n_MygXaEM8ecPH">
    <mxGraphModel dx="1184" dy="1355" grid="1" gridSize="10" guides="1" tooltips="1" connect="1" arrows="1" fold="1" page="1" pageScale="1" pageWidth="827" pageHeight="1169" math="0" shadow="0">
      <root>
        <mxCell id="0" />
        <mxCell id="1" parent="0" />
        <mxCell id="HYcwyn2f8rDjJPnf0lWx-7" value="" style="group" vertex="1" connectable="0" parent="1">
          <mxGeometry x="310" y="270" width="867" height="314" as="geometry" />
        </mxCell>
        <mxCell id="HYcwyn2f8rDjJPnf0lWx-6" value="" style="rounded=0;whiteSpace=wrap;html=1;strokeColor=none;" vertex="1" parent="HYcwyn2f8rDjJPnf0lWx-7">
          <mxGeometry y="10" width="860" height="290" as="geometry" />
        </mxCell>
        <mxCell id="HYcwyn2f8rDjJPnf0lWx-2" value="" style="shape=image;verticalLabelPosition=bottom;labelBackgroundColor=default;verticalAlign=top;aspect=fixed;imageAspect=0;image=data:image/png,iVBORw0KGgoAAAANSUhEUgAAAxMAAAEBCAIAAACMuW++AAAAAXNSR0IArs4c6QAAAARnQU1BAACxjwv8YQUAAAAJcEhZcwAAFiUAABYlAUlSJPAAABfRSURBVHhe7dxpl1XFvcDh+xnvB8iLu+6b3LiS3CQab2JUQAREkEFEQWY0SBABBRUHhhYEGQREnHDFSBAEwtAMKjHk7qZLYzfsytl13M2uOs+z/iurcdWqrq4z/TqG/Mc/AQDojXICAOiVcgIA6JVyAgDolXICAOiVcgIA6JVyAgDolXICAOiVcgIA6JVyAgDolXICAOiVcgIA6NW/KadPP/z8+RWv3PvfM3/6n/ePzsx7F7+2YdfFvw2HFQAAA0M5AQD0SjkBAPRKOQEA9Eo5AQD0SjkBAPRKOQEA9Eo5AQD0SjkBAPRKOQEA9Eo5AQD0SjkBAPRKOQEA9Eo5AQD0SjkBAPRKOQEA9Eo5AQD0SjkBAPRKOQEA9Eo5AQD0SjkBAPRKOQEA9Eo5AQD0SjkBAPRKOQEA9Eo5AQD0SjkBAPRKOQEA9Eo5AQD0SjmRvRs3bly4cOFMf4aHPaUHzqVLl8LDn+rixYthLzrjm2++OXv2bHiEUl27di1sN7GuX79+7ty5cIhUd+rwg0M5kb3qjXLTpk0L+vPmm2+G7RgYW7duDQ9/qi1btvzjH/8I29ENJ06cWLJkSXiEUh09ejRsN7FOnjy5bNmycIhUhw8fDtvRDuVE9r7++utVq1Y92J+NGzeG7RgY69atCw9/qjVr1iinrvn0009nzJgRHqFU+/btC9tNrM8+++zRRx8Nh0i1Z8+esB3tUE5kTzmRRjkVSTkpp7YpJ7KnnEijnIqknJRT25QT2VNOpFFORVJOyqltyonsKSfSKKciKSfl1DblRPaUE2mUU5GUk3Jqm3Iie8qJNMqpSMpJObVNOZE95UQa5VQk5aSc2qacyJ5yIo1yKpJyUk5tU05kTzmRRjkVSTkpp7YpJ7KnnEijnIqknJRT25QT2VNOpFFORVJOyqltyonsKSfSKKciKSfl1DblRPaUE2mUU5GUk3Jqm3Iie8qJNMqpSMpJObVNOZE95UQa5VQk5aSc2qacyJ5yIo1yKpJyUk5tU05kTzmRRjkVSTkpp7YpJ7LXdjmdOnVqW3927tx57ty5sN1Y1efukSNHwrpUx44dC9vRhHIqknJSTm1TTmSv7XJ69913w6JUU6dO/eijj8J2Y/39739/9tlnw7pU69evD9vRhHIqknJSTm1TTmRPOSmnNMqpSMpJObVNOZE95aSc0iinIikn5dQ25UT2lJNySqOcitR2OQ0PD5/pz4ULF+qeNsopC8qJ7Ckn5ZRGORWp7XLasWPHgv688MIL165dC9uNpZyyoJzInnJSTmmUU5HaLqfNmzeHRamWLVt25cqVsN1YyikLyonsKSfllEY5FUk5Kae2KSeyp5yUUxrlVCTlpJzappzInnJSTmmUU5GUk3Jqm3Iie8pJOaVRTkVSTsqpbcqJ7Ckn5ZRGORVJOSmntiknsqeclFMa5VQk5aSc2qacyJ5yUk5plFORlJNyaptyInvKSTmlUU5FUk7KqW3KiewpJ+WURjkVSTkpp7YpJ7KnnJRTGuVUJOWknNqmnMieclJOaZRTkZSTcmqbciJ7ykk5pVFORVJOyqltyonsKSfllEY5FUk5Kae2KSeyp5yUUxrlVCTlpJzappzInnJSTmmUU5GUk3Jqm3Iie8pJOaVRTkVSTsqpbcqJ7Ckn5ZRGORVJOSmntiknsqeclFMa5VQk5aSc2qacyJ5yUk5plFORlJNyaptyInvKSTmlUU5FUk7KqW3KiewpJ+WURjkVSTkpp7YpJ7KnnJRTGuVUJOWknNqmnMieclJOaZRTkZSTcmqbciJ7ykk5pVFORVJOyqltyonsKSfllEY5FUk5Kae2KSeyp5yUUxrlVCTlpJzappzInnJSTmmUU5GUk3Jqm3Iie8pJOaVRTkVSTsqpbcqJ7Ckn5ZRGORVJOSmntiknsqeclFMa5VQk5aSc2qacyJ5yUk5plFORlJNyaptyInvKSTmlUU5FUk7KqW3KiewpJ+WURjkVSTkpp7YpJ7KnnJRTGuVUJOWknNqmnMieclJOaZRTkZSTcmqbciJ7ykk5pVFORVJOyqltyonsKSfllEY5FUk5Kae2KSeyp5yUUxrlVCTlpJzappzInnJSTmmUU5GUk3Jqm3Iie8pJOaVRTkVSTsqpbcqJ7Ckn5ZRGORVJOSmntiknsqeclFMa5VQk5aSc2qacyJ5yUk5plFORlJNyaptyInvKSTmlUU5FUk7KqW3KiewpJ+WURjkVSTkpp7YpJ7KnnJRTGuVUJOWknNqmnMieclJOaZRTkZSTcmqbciJ7ykk5pVFORVJOyqltyonsKSfllEY5FUk5Kae2KSeyp5yUUxrlVCTlpJzappzInnIqtZzOnDmzrW9ffvll2O4WyqlIykk5tU05kT3lVGo5vf/+++En7MPRo0fDdrdQTkVSTsqpbcqJ7Ckn5RShnAaNclJObVNOZE85KacI5TRolJNyaptyInvKSTlFKKdBo5yUU9uUE9lTTsopQjkNGuWknNqmnMieclJOEcpp0Cgn5dQ25UT2lJNyilBOg0Y5Kae2KSeyp5yUU4RyGjTKSTm1TTmRPeWknCKU06BRTsqpbcqJ7Ckn5RShnAaNclJObVNOZE85KacI5TRolJNyaptyInvKSTlFKKdBo5yUU9uUE9lTTsopQjkNGuWknNqmnMieclJOEcpp0Cgn5dQ25UT2lJNyilBOg0Y5Kae2KSeyp5yUU4RyGjTKSTm1TTmRPeWknCKU06BRTsqpbcqJ7Ckn5RShnAaNclJObVNOZE85KacI5dRBw8PDZ/pz4cKFGzduhO3GUk7KqW3KiewpJ+UUoZw6aNu2bQv6U71gqxd+2G4s5aSc2qacyJ5yUk4RyqmDNm3aFG4w1cqVK7/66quw3VjKSTm1TTmRPeWknCKUUwcpJ+WUNeVE9pSTcopQTh2knJRT1pQT2VNOyilCOXWQclJOWVNOZE85KacI5dRBykk5ZU05kT3lpJwilFMHKSfllDXlRPaUk3KKUE4dpJyUU9aUE9lTTsopQjl1kHJSTllTTmRPOSmnCOXUQcpJOWVNOTERTp48ua0/Q0ND58+fD9uNpZyUU4Ry6iDlpJyyppyYCPv37w+v6VTTp08/fvx42G4s5aScIpRTBykn5ZQ15cREUE7KKYFyKpVyUk5ZU05MBOWknBIop1IpJ+WUNeXERFBOyimBciqVclJOWVNOTATlpJwSKKdSKSfllDXlxERQTsopgXIqlXJSTllTTkwE5aScEiinUikn5ZQ15cREUE7KKYFyKpVyUk5ZU05MBOWknBIop1IpJ+WUtcEqp6tXr57pz7lz565fvx62o2fKSTklUE6lUk7KKWuDVU6HDh1a0J8VK1acOnUqbEfPlJNySqCcSqWclFPWBqucdu/eHZ5ZqWbPnv3555+H7eiZclJOCZRTqZSTcsqacmpGOaVRTsopgXIqlXJSTllTTs0opzTKSTklUE6lUk7KKWvKqRnllEY5KacEyqlUykk5ZU05NaOc0ign5ZRAOZVKOSmnrCmnZpRTGuWknBIop1IpJ+WUNeXUjHJKo5yUUwLlVCrlpJyyppyaUU5plJNySqCcSqWclFPWlFMzyimNclJOCZRTqZSTcsqacmpGOaVRTsopgXIqlXK6U+X0ySefbOvPwYMHq7fcsN2gUk7NKKc0ykk5JVBOpVJOd6qcXnnllbAo1dNPP33p0qWw3aBSTs0opzTKSTklUE6lUk7KKWvKqRnllEY5KacEyqlUykk5ZU05NaOc0ign5ZRAOZVKOSmnrCmnZpRTGuWknBIop1IpJ+WUNeXUjHJKo5zuVDmdPn06/JWYVNu3bz979mzYbmIpp1IpJ+WUNeXUjHJKo5zuVDkdOXIkLEo1efLkDz74IGw3sZRTqZSTcsqacmpGOaVRTsopgXIqlXJSTllTTs0opzTKSTklUE6lUk7KKWvKqRnllEY5KacEyqlUykk5ZU05NaOc0ign5ZRAOZVKOSmnrHWrnKpXwoEDB8Jf6UlV9/laUU53inJSTgmUU6mUk3LKWrfK6cKFC4sWLQqPT6qtW7eG7W6hnO4U5aScEiinUikn5ZQ15dSMckqjnJRTAuVUKuWknLKmnJpRTmmUk3JKoJxKpZyUU9aUUzPKKY1yUk4JlFOplJNyyppyakY5pVFOyimBciqVclJOWVNOzSinNMpJOSVQTqVSTsopa8qpmUg5VW+g1fnP9Ofy5cthu7Iop1LL6eLFi+G5myryLqycSqWclFPWlFMzkXKqXgnVB9iC/gwNDYXtyqKciiynGzduvPzyy+G5m+rVV18N291COZVKOSmnrCmnZiLlNDw8vGTJkrAuVfU5FLYri3IqtZyee+65sC7Vn/70p7DdLZRTqZSTcsqacmpGOaVRTsqpjnIaQMpJOWVNOTWjnNIoJ+VURzkNIOWknLKmnJpRTmmUk3Kqo5wGkHJSTllTTs0opzTKSTnVUU4DSDkVWU7Xr18/d+5c+Euzqa5evRq26zDl1IxySqOclFMd5TSAlFOR5XT69OnqcQl/aTZV9X4btusw5dSMckqjnJRTHeU0gJRTkeV04sSJxx57LKxLtWvXrrBdhymnZpRTGuWknOoopwGknJRTHeXUmHJSTnWUU4RyilBOHaSclFMd5dSYclJOdZRThHKKUE4dpJyUUx3l1JhyUk51lFOEcopQTh2knJRTHeXUmHJSTnWUU4RyilBOHaSclFMd5dSYclJOdZRThHKKUE4dpJyUUx3l1JhyUk51lFOEcopQTh2knJRTHeXUmHJSTnWUU4RyilBOHaSclFMd5dSYclJOdZRThHKKUE4dpJyUUx3l1JhyUk51lFOEcopQTh2knJRTHeXUmHJSTnWUU4RyilBOHaSclFMd5dSYclJOdZRThHKKUE4dpJyUUx3l1JhyUk51lFOEcopQTh2knJRTHeXUmHJSTnWUU4RyilBOHaSclFMd5dSYclJOdZRThHKKUE4dpJyUUx3l1JhyUk51lFOEcopQTh2knJRTHeXUmHJSTnWUU4RyilBOHaSclFMd5dSYclJOdZRThHKKUE4dpJyUUx3l1JhyUk51lFOEcopQTh2knJRTHeXUmHJSTnWUU4RyilBOHaSclFMd5dSYclJOdZRThHKKUE4dpJyUUx3l1JhyUk51lFOEcopQTh2knJRTHeXUmHJSTnWUU4RyilBOHaSclFMd5dSYclJOdZRThHKKUE4dpJyUUx3l1JhyulPlVL37V5d/pj/VDYTtbqGclFMd5dRB33zzzdmzZ8MLO1Vd2VSUk3Kqo5waU053qpyuXbu2YcOGBf3Zvn172O4Wykk51VFOHVR9fldvxeGFnerYsWNhu1soJ+VURzk1ppzuVDldvXp1+fLl4RCpXnrppbDdLZSTcqqjnDro448/fvjhh8MPmergwYNhu1soJ+VURzk1ppyUUx3lFKGcIpRTAuWknOrcwXK6fPly+DfBqc6fP//tt9+G7fqgnJpRThHKqY5yilBOHaSclFOdO1hO1Sd4+DfBqdauXVt3+EaUUzPKKUI51VFOEcqpg5STcqpzB8vptddeC4tSPfXUU+fPnw/b9UE5NaOcIpRTHeUUoZw6SDkppzrKqaKcmlFOEcqpjnKKUE4dpJyUUx3lVFFOzSinCOVURzlFKKcOUk7KqY5yqiinZpRThHKqo5wilFMHKSflVEc5VZRTM8opQjnVUU4RyqmDlJNyqqOcKsqpGeUUoZzqKKcI5dRBykk51VFOFeXUjHKKUE51lFOEcuog5aSc6iininJqRjlFKKc6yilCOXWQclJOdZRTRTk1o5wilFMd5RShnDpIOSmnOsqpopyaUU4RyqmOcopQTh2knJRTHeVUUU7NKKcI5VRHOUUopw5STsqpjnKqKKdmlFOEcqqjnCKUUwcpJ+VURzlVlFMzyilCOdVRThHKqYOUk3Kqo5wqyqkZ5RShnOoopwjl1EHKSTnVUU4V5dSMcopQTnWUU4Ry6iDlpJzqKKdK43Kafs9Tm9duP3XizNXL1370+eLkqSeffDL8iKk2v7T5yuVrV4avXq7m0pXLw9Vcrf5Y7b99246wKNWsWbM+/uiTK5dHNhzZ+eb+1dfVdzx96szixYvDulSbNr5Yd/gfd77ff/TwZ8+cW7pkaThEqhde2FB3+N273g6LUk2bNu39947d9ubPn7uwfFm/2ff8uufrDr/37b1hUaqpD009cvi9cYcf2f/y1UsXhlet7Df71j639raHr/7hvnf6bdaqnA69e+i2N199l2ee6Tf7/vjHNXWHP3ig32atHNh/8LaHrx7ZNWv6zb7Vq58ZvnT5X4e/NLL56Essuxn9KUYv570jR6dO7bec3t6957tH9oc3P3I/659fHxalquLjb2fPj5559Oa/P/yx9z+oftEK61LtemvXuMOP7l8dfsOGjWFRqqefXnLmy7NjDx+elh9+8NHMmTPDulQ7dwzV3fyLm14Ki1ItWrTo1Benb3v4Tz4+PnvW7LAu1bY3t9cdfsvmLWFRqoULF/71xBdjDx9esNeufPXN19e//banX4Qal9MDd81dNvf5oa37Duw++qPP0Bt758yeG37EVCuXPvPO0OG3tx/c9ca+odf3vvX6O7vf3L93x7v7ho6sfabfl+v0aTO2vrSt2m33tgPVziP7v/FO9b3e2Xm4+mLenPlhXarlS1aNO3z1RfXHfW8dGXdX/cz+Xe9Vd/Ld4Q+8s/NQ9cf5cxeEQ6RaunhFdfg91eHf/NfN77l58+uf6/dXzCo+tmx8be+OQyM3/8Z3N79t5PDVd1wwf2FYl2rJomV1h39h7YthUaopU6a89MKre6t7/sHhbz4tD1XfdOGCp8K6VIufXPLd4W8+rK/vrb4YPfzGdf3+fjxp0qQX178y5vCvh5uv9n/yiX5/W3hq4eJ94w+/b/TwLz7/cljUh43rttx6+Oqf7H/rvUULnw6LUlWPXbXVnu3vfn/4avMDu94b94rLYkbedqqb317d/OEtG157aMpD4YdMVb3qq8upLuSt79+Kv7v5pYv7/VXn8XlP7N428iQPb2WjT5vqrXLo8Cub3ug/+9at2VA9w394+NHXVPXgVu/SYVGqeXMer56NYw7/xsjhq1fx1he3TXu43+xb++z60cP/60Owuvkd1c0fWbF0dViUau5j83a+tuc2h995+PXNO2ZMfySsS7Vm9bqbh//BJ/i2kbfK/UNHVi3r9/e0x2bN2b519+jhq5NXU31RXUv1/D+y78O/HP9i+OLt/7vAcRqX069/Mm3Sz+fPnbT8iYdX/+gzb/Ly3/9i2m9++kA/M+Xuxx5/aNX8KSvmTlo258Gl1VTbzp+ycsHUVdPunT9ucdO5964ps+5fXO1W7TnnwZH9q+8yb/KK6jtW/+S+X0wft77pTL579rjDj+6/YOr4u+pzqkfwh4evvuMfftnv4Sf9Zvzhw80/tGr67xaMW9x07vnZpEf/8NTjD43c/Oj+3x1+5eNTVt7/vzPGrW86k34z67vDj9zMzf3D4Wf87olxi5vOPf/z4Mz7nrzl8OFpef+vHhm3vuk8+OtH6w7/yO8XjlvcdO7+6YOP3ObwIzdfPS0f+NXMceubTrXD7Q6/ojp8dWnjFidMdQM3Dz/maTl6+Orexi1uOtVjV231w8NXm497reUyN3+KZaM3X73W7vmfSeN+2KZTverrbr56uY1b3HT+8MsZ86asGPu0GTl89Vyadf+i3/5s8rj1TWfa/z0+7vCjr6nqoibf/di4xU3nvl9OH335V/857vCz71987139H37+bW5+5N1mdfX5OG5x07nvF9NunvZ2h3/g6eojctz6pvPwvbWHf+ieOeMWN53f//zhOZOW/vDw1RfVztXDunzu8zte3nvyL1+G+olqXE7GGGOMMSXNb//rkWef3PTx0T+H+olSTsYYY4wZ6FFOxhhjjDG9zo9ZTn/+5K+b/vjGpJ/P//VPphljjDHGlDcP3jVv3bJXjh/7S6ifqH9TTl+ePLd3+6FnFm5aPPM5Y4wxxpjyZvUTG4e27v/i8x/jfyF+9fK1UyfOfHDo+JF9HxpjjDHGlDfHDh3/62cj/z9VoX6i/k05AQDwPeUEANAr5QQA0CvlBADQK+UEANAr5QQA0Jt//vP/AUJ8NJzujKsmAAAAAElFTkSuQmCC;" vertex="1" parent="HYcwyn2f8rDjJPnf0lWx-7">
          <mxGeometry x="80" width="787" height="257" as="geometry" />
        </mxCell>
        <mxCell id="HYcwyn2f8rDjJPnf0lWx-3" value="&amp;nbsp;0&lt;span style=&quot;font-size: 23px;&quot;&gt;&lt;span style=&quot;white-space: pre; font-size: 23px;&quot;&gt;&amp;nbsp;&amp;nbsp;&amp;nbsp;&amp;nbsp;&lt;/span&gt;&lt;/span&gt;&lt;span style=&quot;font-size: 23px;&quot;&gt;&lt;span style=&quot;white-space: pre; font-size: 23px;&quot;&gt;&amp;nbsp;&lt;/span&gt;&lt;/span&gt;&lt;span style=&quot;font-size: 23px;&quot;&gt;&lt;span style=&quot;white-space: pre; font-size: 23px;&quot;&gt;&amp;nbsp;&amp;nbsp;&amp;nbsp;&amp;nbsp;&lt;/span&gt;&lt;/span&gt;&lt;span style=&quot;font-size: 23px;&quot;&gt;&lt;span style=&quot;white-space: pre; font-size: 23px;&quot;&gt;&amp;nbsp;&amp;nbsp;&amp;nbsp;&lt;/span&gt;&lt;/span&gt;&lt;span style=&quot;font-size: 23px;&quot;&gt;&lt;span style=&quot;white-space: pre; font-size: 23px;&quot;&gt;&lt;span style=&quot;white-space: pre; font-size: 23px;&quot;&gt;&lt;span style=&quot;white-space: pre; font-size: 23px;&quot;&gt;&lt;span style=&quot;white-space: pre;&quot;&gt;&#x9;&lt;/span&gt;&lt;/span&gt;&lt;span style=&quot;white-space: pre; font-size: 23px;&quot;&gt;&#x9;&lt;/span&gt;       &lt;/span&gt;District Population&lt;span style=&quot;white-space: pre;&quot;&gt;&#x9;&lt;/span&gt;&lt;span style=&quot;white-space: pre; font-size: 23px;&quot;&gt;&#x9;&lt;/span&gt;      1000.00&amp;nbsp;&amp;nbsp;&lt;/span&gt;&lt;/span&gt;" style="rounded=0;whiteSpace=wrap;html=1;align=left;fontFamily=Verdana;fontSize=23;strokeColor=none;" vertex="1" parent="HYcwyn2f8rDjJPnf0lWx-7">
          <mxGeometry x="90" y="254" width="760" height="60" as="geometry" />
        </mxCell>
        <mxCell id="HYcwyn2f8rDjJPnf0lWx-5" value="Number of Districts" style="rounded=0;whiteSpace=wrap;html=1;align=left;fontFamily=Verdana;fontSize=23;rotation=-90;strokeColor=none;" vertex="1" parent="HYcwyn2f8rDjJPnf0lWx-7">
          <mxGeometry x="-90" y="98.5" width="240" height="60" as="geometry" />
        </mxCell>
      </root>
    </mxGraphModel>
  </diagram>
</mxfile>
